<?xml version="1.0" encoding="UTF-8" standalone="no"?>
<svg
   xmlns:dc="http://purl.org/dc/elements/1.1/"
   xmlns:cc="http://creativecommons.org/ns#"
   xmlns:rdf="http://www.w3.org/1999/02/22-rdf-syntax-ns#"
   xmlns:svg="http://www.w3.org/2000/svg"
   xmlns="http://www.w3.org/2000/svg"
   xmlns:sodipodi="http://sodipodi.sourceforge.net/DTD/sodipodi-0.dtd"
   xmlns:inkscape="http://www.inkscape.org/namespaces/inkscape"
   xml:space="preserve"
   enable-background="new 0 0 864 864"
   viewBox="0 0 250 500"
   height="500"
   width="250"
   y="0px"
   x="0px"
   id="Layer_2"
   version="1.1"
   sodipodi:docname="graphic.svg"
   inkscape:version="0.92.4 (5da689c313, 2019-01-14)"><sodipodi:namedview
   pagecolor="#ffffff"
   bordercolor="#666666"
   borderopacity="1"
   objecttolerance="10"
   gridtolerance="10"
   guidetolerance="10"
   inkscape:pageopacity="0"
   inkscape:pageshadow="2"
   inkscape:window-width="1920"
   inkscape:window-height="1027"
   id="namedview22"
   showgrid="false"
   inkscape:zoom="0.472"
   inkscape:cx="-545.55085"
   inkscape:cy="250"
   inkscape:window-x="-8"
   inkscape:window-y="-8"
   inkscape:window-maximized="1"
   inkscape:current-layer="Layer_2" /><defs
   id="defs37" />



<g
   id="snowman"
   transform="matrix(0.56547325,0,0,0.56547325,-117.14951,212.78936)"><path
     d="m 574.402,30.938 c 12.807,-4.108 19.449,-12.593 20.282,-25.946 0.492,-7.869 0.133,-16.048 2.222,-23.508 4.518,-16.129 0.817,-29.04 -11.917,-39.658 -15.353,-12.803 -23.361,-29.045 -22.143,-49.226 1.885,-31.24 -14.695,-51.047 -39.993,-65.657 -3.011,-1.739 -5.844,-3.781 -8.467,-5.493 1.927,-4.344 4.073,-7.781 5.009,-11.522 6.134,-24.509 19.692,-44.893 35.568,-63.872 10.027,-11.989 21.776,-12.53 34.81,-2.861 1.306,0.969 3.509,0.728 5.296,1.048 0.257,-1.772 1.386,-4.366 0.623,-5.175 -3.629,-3.843 -7.413,-9.548 -11.812,-10.222 -8.17,-1.252 -16.806,0.532 -26.516,1.13 -0.147,-0.116 -2.174,-1.702 -4.199,-3.289 -1.895,2.86 -4.101,5.565 -5.615,8.613 -3.085,6.202 -5.36,12.835 -8.765,18.839 -4.83,8.518 -10.994,16.312 -15.463,24.995 -5.231,10.167 -9.255,20.958 -14.486,33.063 1.859,-10.259 3.583,-18.839 4.95,-27.475 4.757,-30.055 -0.721,-59.474 -4.896,-89.11 -2.33,-16.548 -6.997,-31.262 -18.969,-43.06 -2.419,-2.383 -5.973,-3.615 -9.003,-5.378 -1.176,1.162 -2.353,2.326 -3.529,3.488 14.374,7.365 13.724,22.707 20.194,34.384 6.578,11.871 6.094,27.905 7.667,42.23 1.578,14.386 1.88,28.914 2.741,43.379 -1.185,0.135 -2.37,0.269 -3.556,0.404 -1.088,-3.604 -2.317,-7.173 -3.234,-10.821 -2.048,-8.154 -3.585,-16.458 -6.105,-24.458 -0.782,-2.485 -4.057,-4.187 -6.189,-6.248 -0.365,3.081 -1.478,6.299 -0.938,9.21 1.076,5.803 3.06,11.439 5.115,18.729 -14.872,-7.264 -35.179,-10.016 -44.523,7.86 -0.826,1.58 -0.32,3.856 -0.433,5.81 1.995,-0.278 4.244,-0.081 5.913,-0.97 1.624,-0.864 2.806,-2.738 3.922,-4.349 6.608,-9.533 17.145,-6.571 24.186,-4.07 5.927,2.106 12.273,10.976 13.159,17.562 1.529,11.383 -1.03,23.315 -1.866,34.903 -1.779,0.418 -2.722,0.879 -3.631,0.819 -28.597,-1.869 -48.622,11.927 -64.59,34.263 -15.078,21.091 -31.07,41.527 -46.426,62.423 -3.467,4.717 -6.412,9.943 -8.83,15.282 -11.875,26.213 -11.293,53.716 -7.069,81.264 4.556,29.718 10.05,59.292 15.074,88.573 -0.389,-0.357 -1.52,-1.069 -2.206,-2.082 -16.785,-24.7 -33.485,-49.456 -50.294,-74.14 -3.61,-5.3 -5.695,-10.263 -4.106,-17.284 1.016,-4.489 -0.328,-11.651 -3.572,-14.313 -4.955,-4.066 -9.275,-0.826 -15.48,1.741 -0.758,-1.701 -2.734,-5.003 -3.722,-8.579 -2.439,-8.836 -3.738,-18.062 -6.984,-26.562 -1.073,-2.809 -6.786,-5.528 -10.228,-5.352 -5.094,0.261 -7.69,4.378 -6.02,10.094 1.772,6.063 3.268,12.208 5.468,20.526 -7.252,-5.225 -12.499,-9.079 -17.823,-12.821 -6.329,-4.449 -12.297,-2.058 -11.754,5.505 0.365,5.071 3.931,9.913 6.002,14.715 -7.482,-0.958 -8.511,5.398 -8.692,10.83 -0.223,6.661 6.067,7.28 11.483,8.193 8.531,1.437 17.068,3.772 25.111,6.968 15.242,6.055 24.212,19.666 35.352,30.724 9.919,9.847 15.771,21.412 19.508,34.679 1.523,5.409 4.459,11.604 8.725,14.846 15.178,11.53 19.384,28.226 23.297,45.181 0.729,3.161 0.426,7.269 -1.024,10.111 -13.392,26.236 -18.113,53.166 -6.962,82.054 -20.502,10.72 -30.934,28.353 -35.083,49.967 -5.283,27.518 -3.534,55.005 2.551,82.144 5.403,24.101 19.107,42.784 40.234,55.596 -0.893,2.946 -1.563,5.116 -2.207,7.293 -6.568,22.21 1.067,38.928 22.933,45.999 18.922,6.121 38.513,7.841 58.085,1.471 2.407,-0.784 6.324,-1.196 7.816,0.143 14.744,13.233 32.479,11.906 49.636,9.32 36.845,-5.552 46.149,-18.677 41.268,-55.736 -0.733,-5.568 0.825,-8.891 5.044,-12.472 6.969,-5.917 14.08,-12.065 19.511,-19.328 43.495,-58.156 22.759,-152.01 -40.817,-186.921 -2.597,-1.427 -5.68,-4.796 -5.828,-7.414 -1.436,-25.332 -7.271,-48.649 -27.574,-65.285 22.375,-33.741 44.245,-66.878 66.395,-99.826 1.794,-2.673 5.249,-4.881 8.389,-5.888 z"
     id="black"
     style="clip-rule:evenodd;fill-rule:evenodd"
     inkscape:connector-curvature="0" /><path
     d="m 575.913,2.751 c -26.982,-7.087 -52.475,-12.46 -70.976,-32.842 -1.545,-1.703 -3.435,-3.223 -4.53,-5.184 -4.511,-8.066 -12.373,-15.79 -5.819,-25.97 5.817,-9.037 23.532,-13.396 33.886,-9.296 15.874,6.285 25.356,18.246 30.057,34.212 2.828,9.603 4.305,19.516 12.545,26.829 2.653,2.354 2.998,7.309 4.837,12.251 z"
     id="nose"
     style="clip-rule:evenodd;fill:#f7941e;fill-rule:evenodd"
     inkscape:connector-curvature="0" /><g
     id="white"
     transform="translate(0,-364)">
	<path
   d="m 412.122,297.161 c 4.485,0 7.45,0 10.967,0 -7.882,-12.18 -23.503,-9.102 -33.576,7.935 4.124,-2.08 6.074,-2.938 7.895,-4.016 1.9,-1.124 3.677,-2.458 4.195,-2.811 8.728,16.341 16.075,33.048 26.064,47.987 10.363,15.497 25.933,25.763 43.344,32.118 -1.046,7.319 -2.366,13.73 -2.799,20.2 -0.856,12.788 2.221,17.636 14.443,22.427 18.499,7.249 37.42,9.211 58.796,2.573 -2.603,4.075 -4.298,6.882 -6.14,9.588 -15.696,23.071 -31.41,46.131 -47.152,69.17 -0.888,1.299 -1.904,2.622 -3.149,3.548 -22.477,16.717 -67.696,12.073 -82.934,-10.807 -8.258,-12.4 -12.384,-28.081 -16.133,-42.851 -9.621,-37.901 -16.787,-76.349 -17.115,-115.623 -0.197,-23.591 6.106,-45.394 22.274,-63.477 8.32,-9.306 18.355,-11.763 29.096,-5.609 7.316,4.193 13.982,9.759 20.283,15.44 13.132,11.842 27.73,19.702 46.096,19.314 -1.752,18.48 9.197,30.57 21.326,41.661 18.17,16.617 41.63,21.532 64.434,27.56 5.646,1.493 9.071,-1.631 8.044,-7.602 -0.651,-3.779 -1.54,-8.453 -4.094,-10.797 -7.852,-7.212 -8.761,-17.112 -12.381,-26.098 -4.327,-10.74 -10.644,-20.679 -15.802,-30.406 1.211,-9.542 3.421,-19.661 3.531,-29.804 0.12,-10.923 -6.095,-18.569 -16.922,-21.397 -10.505,-2.744 -17.432,3.594 -23.773,10.556 -1.713,1.881 -2.749,4.38 -3.5,5.615 -4.636,-6.496 -8.176,-15.415 -14.731,-19.516 -6.432,-4.024 -16.437,-5.536 -23.974,-3.929 -15.774,3.363 -24.189,19.833 -22.809,41.087 -13.403,-8.299 -22.628,-23.355 -43.553,-20.405 14.799,-19.977 26.503,-38.664 41.096,-54.728 17.117,-18.842 43.289,-22.495 66.062,-10.833 12.308,6.305 23.295,15.191 34.877,22.913 -0.669,1.011 -1.338,2.022 -2.007,3.034 -4.211,-2.958 -8.421,-5.914 -12.854,-9.025 -4.807,5.794 -4.235,10.936 1.15,13.856 19.735,10.701 24.541,27.958 25.589,48.924 0.46,9.211 7.383,18.479 12.63,26.941 3.56,5.742 9.068,10.385 14.137,15.052 6.712,6.18 8.59,13.52 7.302,22.287 -1.475,10.032 -2.686,20.114 -3.642,30.208 -1.327,14.008 -4.922,18.675 -19.4,19.675 -41.98,2.898 -81.774,-5.768 -117.648,-27.695 -22.183,-13.557 -32.218,-36.207 -37.543,-62.24 z m 104.129,-86.158 c -12.03,0 -21.105,0.105 -30.178,-0.023 -14.326,-0.203 -23.734,8.227 -31.876,18.439 -1.445,1.814 -0.702,5.374 -0.971,8.129 0.753,0.563 1.505,1.127 2.258,1.692 12.056,-16.127 29.416,-17.41 46.853,-18.579 2.255,-0.151 4.85,-0.36 6.604,-1.551 2.23,-1.509 3.761,-4.048 7.31,-8.107 z"
   id="path6"
   style="clip-rule:evenodd;fill:#ffffff;fill-rule:evenodd"
   inkscape:connector-curvature="0" />
	<path
   d="m 553.696,767.281 c -6.134,4.986 -11.288,12.082 -18.221,13.752 -17.398,4.19 -35.585,8.378 -53.228,7.572 -32.675,-1.492 -65.35,-5.497 -97.713,-10.479 -23.368,-3.597 -35.52,-21.938 -42.129,-42.577 -9.861,-30.794 -11.126,-62.602 -3.985,-94.283 3.579,-15.883 11.676,-29.324 27.017,-36.812 2.38,-1.161 6.876,-1.53 8.528,-0.104 20.34,17.557 44.867,20.192 69.602,17.425 18.219,-2.039 35.942,-8.508 55.278,-13.352 1.352,3.536 4.458,9.706 6.069,16.246 5.328,21.605 9.843,43.414 15.271,64.993 1.745,6.943 -0.6,9.136 -6.735,11.234 -3.163,1.081 -6.767,4.319 -7.225,8.579 -0.238,2.217 3.278,7.076 5.805,7.613 3.162,0.674 7.009,-1.875 13.594,-4.022 -0.057,15.537 -6.332,19.226 -9.49,27.85 -1.796,4.905 -5.25,9.438 -5.964,14.424 -0.518,3.613 -0.194,9.991 3.535,11.567 4.239,1.369 9.656,-2.152 11.252,-5.025 3.707,-6.672 5.395,-14.465 8.915,-24.772 2.287,9.16 3.72,15.801 5.628,22.302 2.184,7.446 6.473,11.411 14.617,7.371 z m -136.85,-76.757 c -0.065,-19.408 -12.993,-33.037 -31.321,-33.021 -11.868,0.011 -23.939,13.862 -23.856,27.376 0.103,16.704 13.843,27.569 34.899,27.6 13.676,0.02 20.328,-7.181 20.278,-21.955 z m -19.71,38.478 c -18.264,0.358 -21.316,4.166 -20.828,25.977 0.253,11.286 14.971,21.131 30.881,20.656 10.568,-0.315 19.712,-10.861 19.229,-22.176 -0.583,-13.637 -13.898,-24.759 -29.282,-24.457 z"
   id="path8"
   style="clip-rule:evenodd;fill:#ffffff;fill-rule:evenodd"
   inkscape:connector-curvature="0" />
	<path
   d="m 493.979,507.353 c 19.962,10.066 29.941,57.143 19.159,72.011 -2.002,-11.345 -3.773,-20.841 -5.327,-30.372 -1.16,-7.121 -2.494,-14.223 -11.862,-13.851 -7.1,0.282 -11.659,7.892 -9.711,17.464 2.404,11.816 5.888,23.417 9.034,35.075 2.225,8.243 -0.438,13.401 -8.43,16.994 -29.298,13.17 -59.64,16.745 -89.937,6.188 -25.25,-8.796 -29.888,-18.445 -30.756,-48.677 -0.494,-17.185 4.664,-33.921 14.725,-48.182 3.903,-5.532 10.553,-9.128 15.664,-13.369 32.233,25.533 66.367,27.637 97.441,6.719 z m -120.011,55.419 c -0.107,12.968 8.811,26.616 21.286,30.857 3.505,1.19 8.701,0.663 11.935,-1.171 13.925,-7.898 15.704,-40.274 3.158,-50.374 -0.749,-0.603 -1.615,-1.235 -2.521,-1.44 -16.43,-3.72 -35.05,-3.232 -33.858,22.128 z"
   id="path10"
   style="clip-rule:evenodd;fill:#ffffff;fill-rule:evenodd"
   inkscape:connector-curvature="0" />
	<path
   d="m 572.973,746.439 c -26.288,-28.148 -33.878,-63.866 -42.013,-98.72 -4.495,-19.264 -3.743,-39.673 -13.066,-58.078 -1.341,-2.646 1.624,-7.473 2.612,-11.357 60.884,19.201 86.818,114.036 52.467,168.155 z"
   id="path12"
   style="clip-rule:evenodd;fill:#ffffff;fill-rule:evenodd"
   inkscape:connector-curvature="0" />
	<path
   d="m 456.778,797.274 c 28.04,-2.439 54.935,-4.777 82.776,-7.199 6.819,14.699 6.438,42.676 -19.033,46.538 -11.9,1.804 -23.936,4.106 -35.878,3.933 -17.445,-0.254 -26.218,-9.42 -27.781,-26.543 -0.53,-5.803 -0.084,-11.694 -0.084,-16.729 z"
   id="path14"
   style="clip-rule:evenodd;fill:#ffffff;fill-rule:evenodd"
   inkscape:connector-curvature="0" />
	<path
   d="m 449.848,794.668 c 0.521,11.259 1.017,22.004 1.573,34.052 -1.901,0.832 -4.83,3.256 -7.688,3.176 -16.216,-0.456 -33.079,1.037 -48.455,-2.982 -20.826,-5.443 -25.402,-22.894 -14.191,-42.969 22.585,2.865 45.25,5.74 68.761,8.723 z"
   id="path16"
   style="clip-rule:evenodd;fill:#ffffff;fill-rule:evenodd"
   inkscape:connector-curvature="0" />
	<path
   d="m 476.349,382.265 c 23.892,4.992 46.217,9.656 68.856,14.385 1.868,17.499 -4.943,26.139 -22.885,25.485 -11.34,-0.414 -22.849,-2.212 -33.823,-5.12 -14.196,-3.762 -15.377,-6.346 -14.398,-21.029 0.321,-4.818 1.547,-9.576 2.25,-13.721 z"
   id="path18"
   style="clip-rule:evenodd;fill:#ffffff;fill-rule:evenodd"
   inkscape:connector-curvature="0" />
	<path
   d="m 499.574,267.626 c 0.127,15.334 -9.767,28.516 -21.296,28.375 -15.548,-0.192 -26.425,-9.521 -26.49,-22.721 -0.084,-16.984 9.819,-28.489 24.454,-28.404 13.089,0.076 23.227,9.962 23.332,22.75 z m -10.26,-1.049 c 0.014,-7.728 -6.633,-14.251 -14.419,-14.153 -7.736,0.098 -14.416,6.906 -14.181,14.456 0.229,7.311 6.457,13.284 14.027,13.451 8.036,0.177 14.561,-5.981 14.573,-13.754 z"
   id="path20"
   style="clip-rule:evenodd;fill:#ffffff;fill-rule:evenodd"
   inkscape:connector-curvature="0" />
	<path
   d="m 540.811,293.64 c -3.815,-2.124 -7.233,-4.026 -8.521,-4.742 1.134,-7.753 4.195,-14.984 2.557,-20.916 -2.109,-7.639 -9.924,-9.621 -18.199,-7.465 6.347,-7.764 15.88,-9.473 22.969,-4.459 9.022,6.382 9.793,23.116 1.194,37.582 z"
   id="path22"
   style="clip-rule:evenodd;fill:#ffffff;fill-rule:evenodd"
   inkscape:connector-curvature="0" />
	<path
   d="m 554.117,766.784 c 3.292,-5.137 0.337,-17.079 0.731,-21.783 2.817,2.945 7.683,8.835 14.43,11.061 -5.022,3.504 -10.121,7.061 -15.245,10.588 0.56,-0.521 0.084,0.134 0.084,0.134 z"
   id="path24"
   style="clip-rule:evenodd;fill:#ffffff;fill-rule:evenodd"
   inkscape:connector-curvature="0" />
</g><g
     id="hands"
     transform="translate(0,-364)">
	<path
   d="m 551.342,728.012 c -10.009,-28.257 -19.199,-56.834 -27.682,-85.592 -3.952,-13.396 -5.081,-27.599 -8.427,-41.205 -3.969,-16.134 -8.945,-32.019 -13.486,-48.011 -1.168,-4.111 -2.338,-8.223 -3.508,-12.333 -1.182,0.019 -2.363,0.035 -3.546,0.054 -0.841,3.405 -2.982,7.095 -2.311,10.17 4.106,18.803 8.615,37.529 13.47,56.155 3.133,12.017 7.398,23.736 10.581,35.741 3.188,12.017 5.024,24.415 8.632,36.289 1.603,5.277 1.234,10.774 1.087,16.226 -3.819,2.641 -16.9,11.793 -16.336,12.921 0.66,1.319 1.1,5.059 3.959,5.059 1.172,0 9.702,-2.125 14.018,-3.831 0.47,1.243 1.057,2.47 1.806,3.677 0.439,0.707 0.155,1.951 0.015,2.917 -0.41,2.821 -0.829,5.635 -1.247,8.422 l -6.893,15.648 c 0,0 -12.758,18.255 -6.159,21.774 6.599,3.519 11.059,-16.022 12.158,-16.683 0.727,-0.437 4.384,-9.432 7.27,-14.563 2.582,0.153 4.435,3.125 6.213,9.219 1.739,5.958 3.348,18.291 5.152,24.228 0.505,1.663 4.233,1.56 5.059,-1.1 1.6,-5.83 -0.003,-16.36 -1.979,-23.534 -0.574,-2.085 -2.069,-4.429 -1.54,-6.818 1.979,2.419 3.151,2.865 4.839,4.618 3.708,3.852 8.188,7.363 11.438,11.657 2.1,1.852 5.495,0.515 3.959,-3.299 -4.751,-6.017 -14.118,-10.965 -16.542,-17.806 z"
   id="path28"
   style="clip-rule:evenodd;fill:#726658;fill-rule:evenodd"
   inkscape:connector-curvature="0" />
	<path
   d="m 386.503,496.162 c -18.414,-44.075 -57.835,-93.298 -71.82,-116.048 1.313,-5.587 4.711,-18.959 0.209,-21.873 -3.941,-2.55 -11.15,2.098 -15.053,5.054 -4.215,-8.411 -10.225,-43.689 -17.788,-43.149 -3.241,0.231 1.841,21.513 5.122,34.053 -1.637,-0.645 -3.367,-1.094 -5.213,-1.3 -7.031,-7.455 -22.474,-21.656 -25.525,-16.989 -4.144,6.338 11.064,19.001 19.182,25.111 -7.257,-2.738 -17.62,-6.312 -20.496,-3.437 -3.612,3.613 -0.657,8.539 -0.657,8.539 3.941,0.329 44.335,11.823 44.335,11.823 0,0 9.123,5.663 13.256,9.492 16.628,19.408 38.632,58.489 45.104,68.374 7.062,10.785 15.079,18.476 18.567,30.23 1.729,5.828 3.763,11.564 5.658,17.343 0.897,0.186 1.795,0.372 2.691,0.558 5.037,-3.172 3.148,-6.058 2.428,-7.781 z"
   id="path30"
   style="clip-rule:evenodd;fill:#726658;fill-rule:evenodd"
   inkscape:connector-curvature="0" />
</g></g>
<metadata
   id="metadata3727"><rdf:RDF><cc:Work
       rdf:about=""><dc:title></dc:title></cc:Work></rdf:RDF></metadata></svg>