<?xml version="1.0" encoding="UTF-8" standalone="no"?>
<!-- Generator: Adobe Illustrator 16.0.0, SVG Export Plug-In . SVG Version: 6.00 Build 0)  -->

<svg
   xmlns:dc="http://purl.org/dc/elements/1.1/"
   xmlns:cc="http://creativecommons.org/ns#"
   xmlns:rdf="http://www.w3.org/1999/02/22-rdf-syntax-ns#"
   xmlns:svg="http://www.w3.org/2000/svg"
   xmlns="http://www.w3.org/2000/svg"
   xmlns:sodipodi="http://sodipodi.sourceforge.net/DTD/sodipodi-0.dtd"
   xmlns:inkscape="http://www.inkscape.org/namespaces/inkscape"
   version="1.1"
   id="Layer_2"
   x="0px"
   y="0px"
   width="500"
   height="864"
   viewBox="0 0 500 864"
   enable-background="new 0 0 864 864"
   xml:space="preserve"
   sodipodi:docname="graphicf.svg"
   inkscape:version="0.92.4 (5da689c313, 2019-01-14)"><metadata
   id="metadata39"><rdf:RDF><cc:Work
       rdf:about=""><dc:format>image/svg+xml</dc:format><dc:type
         rdf:resource="http://purl.org/dc/dcmitype/StillImage" /><dc:title></dc:title></cc:Work></rdf:RDF></metadata><defs
   id="defs37" /><sodipodi:namedview
   pagecolor="#ffffff"
   bordercolor="#666666"
   borderopacity="1"
   objecttolerance="10"
   gridtolerance="10"
   guidetolerance="10"
   inkscape:pageopacity="0"
   inkscape:pageshadow="2"
   inkscape:window-width="1920"
   inkscape:window-height="1027"
   id="namedview35"
   showgrid="false"
   inkscape:zoom="0.27314815"
   inkscape:cx="432"
   inkscape:cy="432"
   inkscape:window-x="-8"
   inkscape:window-y="-8"
   inkscape:window-maximized="1"
   inkscape:current-layer="Layer_2" />
<path
   d="m 440.02277,368.71444 c 8.38877,-2.6908 12.73938,-8.24859 13.28501,-16.995 0.32226,-5.15431 0.0871,-10.51167 1.45544,-15.39808 2.95935,-10.56473 0.53515,-19.02162 -7.80581,-25.97656 -10.05643,-8.38615 -15.30179,-19.0249 -14.50398,-32.24374 1.2347,-20.46265 -9.62544,-33.43652 -26.19599,-43.00628 -1.97225,-1.13907 -3.82791,-2.47661 -5.54601,-3.598 1.26221,-2.84538 2.66787,-5.09666 3.28097,-7.54707 4.01785,-16.05375 12.89854,-29.40556 23.29755,-41.83708 6.56783,-7.85297 14.26359,-8.20733 22.80105,-1.874 0.85545,0.63471 2.29845,0.47685 3.46896,0.68646 0.16834,-1.16069 0.90785,-2.8598 0.40807,-3.3897 -2.37705,-2.51722 -4.85562,-6.25408 -7.73703,-6.69556 -5.35147,-0.82008 -11.00817,0.34847 -17.36836,0.74017 -0.0963,-0.076 -1.424,-1.11484 -2.75041,-2.15435 -1.24125,1.87334 -2.68621,3.64516 -3.6779,5.64164 -2.02072,4.0624 -3.51088,8.40711 -5.7412,12.33982 -3.16372,5.57941 -7.20123,10.68459 -10.12849,16.37208 -3.42638,6.65953 -6.06216,13.72779 -9.48854,21.65674 1.21767,-6.71979 2.34692,-12.33981 3.24232,-17.99652 3.1159,-19.68645 -0.47227,-38.95632 -3.20695,-58.36833 -1.52618,-10.83918 -4.58314,-20.47706 -12.42497,-28.20492 -1.58448,-1.5609 -3.9124,-2.36788 -5.89709,-3.52267 -0.7703,0.76113 -1.54125,1.52357 -2.31155,2.28469 9.41518,4.82418 8.98942,14.87341 13.22736,22.52202 4.30869,7.77567 3.99166,18.27817 5.022,27.66126 1.03361,9.42303 1.23142,18.93908 1.79539,28.41387 -0.77619,0.0884 -1.55238,0.1762 -2.32923,0.26462 -0.71266,-2.36067 -1.51767,-4.69842 -2.11832,-7.08791 -1.34147,-5.34099 -2.34822,-10.78023 -3.99886,-16.02034 -0.51222,-1.62771 -2.65739,-2.74255 -4.05388,-4.09253 -0.23908,2.0181 -0.96811,4.12593 -0.61441,6.03268 0.7048,3.80105 2.00435,7.49271 3.3504,12.26777 -9.74137,-4.75803 -23.04275,-6.56063 -29.16321,5.14841 -0.54104,1.03492 -0.2096,2.52574 -0.28362,3.80563 1.30676,-0.18209 2.77988,-0.0531 3.8731,-0.63536 1.06375,-0.56593 1.83797,-1.79343 2.56897,-2.84866 4.32834,-6.24425 11.23022,-4.3041 15.84218,-2.66591 3.88227,1.37946 8.03899,7.18944 8.61933,11.50337 1.00152,7.45602 -0.67466,15.27166 -1.22225,22.86196 -1.16527,0.2738 -1.78295,0.57576 -2.37836,0.53646 -18.73145,-1.22422 -31.84811,7.81236 -42.30738,22.44276 -9.87631,13.81491 -20.3513,27.20078 -30.4097,40.88796 -2.27094,3.08971 -4.19995,6.51281 -5.78378,10.00993 -7.77829,17.1699 -7.39708,35.18476 -4.6303,53.2291 2.98425,19.46571 6.5829,38.83711 9.87369,58.01659 -0.2548,-0.23384 -0.99562,-0.70021 -1.44496,-1.36374 -10.99442,-16.17886 -21.93316,-32.3944 -32.94329,-48.56277 -2.36461,-3.47158 -3.73031,-6.72241 -2.68949,-11.32127 0.66549,-2.94036 -0.21485,-7.63157 -2.33972,-9.37522 -3.24559,-2.66329 -6.07525,-0.54104 -10.13962,1.14038 -0.4965,-1.11418 -1.79081,-3.27704 -2.43796,-5.61937 -1.59758,-5.78771 -2.44845,-11.83087 -4.57462,-17.39849 -0.70283,-1.83994 -4.44493,-3.62092 -6.69949,-3.50564 -3.33664,0.17096 -5.03706,2.86765 -3.94319,6.61172 1.16069,3.97135 2.14059,7.99641 3.58162,13.44482 -4.75016,-3.42245 -8.18702,-5.94687 -11.67432,-8.39794 -4.14559,-2.91416 -8.05471,-1.34802 -7.69904,3.60586 0.23908,3.32157 2.57486,6.49315 3.9314,9.63853 -4.90082,-0.6275 -5.57483,3.53577 -5.69339,7.09381 -0.14607,4.36305 3.97397,4.7685 7.52153,5.36653 5.58793,0.94126 11.17979,2.47072 16.44807,4.56414 9.98373,3.96611 15.85921,12.88152 23.15607,20.12467 6.49709,6.44992 10.33023,14.02516 12.77802,22.71524 0.99759,3.54297 2.92071,7.60079 5.715,9.72434 9.94181,7.55232 12.6968,18.48844 15.25987,29.59421 0.47751,2.0705 0.27904,4.7613 -0.67073,6.62285 -8.77196,17.18496 -11.86428,34.8245 -4.56021,53.74655 -13.42911,7.02176 -20.26222,18.57163 -22.97987,32.72911 -3.46045,18.02469 -2.31483,36.02907 1.67094,53.8055 3.53904,15.78651 12.51536,28.02414 26.35385,36.41619 -0.58493,1.92967 -1.02379,3.35105 -1.44562,4.77702 -4.30213,14.54787 0.6989,25.4984 15.02145,30.13 12.39418,4.00935 25.22657,5.13597 38.04651,0.96353 1.57662,-0.51353 4.14231,-0.7834 5.11959,0.0937 9.65753,8.6678 21.27421,7.7986 32.5123,6.10473 24.134,-3.63664 30.22826,-12.2337 27.03113,-36.50788 -0.48012,-3.64712 0.54039,-5.82374 3.30389,-8.16934 4.5648,-3.87572 9.22261,-7.90275 12.77999,-12.66012 28.48985,-38.09302 14.90747,-99.56874 -26.73572,-122.43595 -1.70107,-0.93471 -3.72048,-3.14145 -3.81743,-4.85628 -0.9406,-16.59282 -4.76261,-31.86579 -18.06136,-42.76261 14.65594,-22.10084 28.98111,-43.80606 43.48968,-65.38747 1.17509,-1.75086 3.43817,-3.19713 5.49491,-3.85673 z"
   id="path2"
   inkscape:connector-curvature="0"
   style="clip-rule:evenodd;fill-rule:evenodd;stroke-width:0.6550144" />
<path
   d="m 441.0125,350.25155 c -17.6736,-4.64209 -34.37188,-8.16148 -46.4903,-21.51198 -1.012,-1.11549 -2.24998,-2.11111 -2.96722,-3.3956 -2.95477,-5.28334 -8.10449,-10.34267 -3.81153,-17.01072 3.81022,-5.91937 15.4138,-8.77457 22.19582,-6.08902 10.3977,4.11677 16.60855,11.9514 19.68777,22.40936 1.85238,6.2901 2.81984,12.78326 8.21716,17.57338 1.73775,1.5419 1.96373,4.7875 3.1683,8.02458 z"
   id="path4"
   inkscape:connector-curvature="0"
   style="clip-rule:evenodd;fill:#f7941e;fill-rule:evenodd;stroke-width:0.6550144" />
<g
   id="g26"
   transform="matrix(0.65501442,0,0,0.65501442,63.781181,110.02436)">
	<path
   d="m 412.122,297.161 c 4.485,0 7.45,0 10.967,0 -7.882,-12.18 -23.503,-9.102 -33.576,7.935 4.124,-2.08 6.074,-2.938 7.895,-4.016 1.9,-1.124 3.677,-2.458 4.195,-2.811 8.728,16.341 16.075,33.048 26.064,47.987 10.363,15.497 25.933,25.763 43.344,32.118 -1.046,7.319 -2.366,13.73 -2.799,20.2 -0.856,12.788 2.221,17.636 14.443,22.427 18.499,7.249 37.42,9.211 58.796,2.573 -2.603,4.075 -4.298,6.882 -6.14,9.588 -15.696,23.071 -31.41,46.131 -47.152,69.17 -0.888,1.299 -1.904,2.622 -3.149,3.548 -22.477,16.717 -67.696,12.073 -82.934,-10.807 -8.258,-12.4 -12.384,-28.081 -16.133,-42.851 -9.621,-37.901 -16.787,-76.349 -17.115,-115.623 -0.197,-23.591 6.106,-45.394 22.274,-63.477 8.32,-9.306 18.355,-11.763 29.096,-5.609 7.316,4.193 13.982,9.759 20.283,15.44 13.132,11.842 27.73,19.702 46.096,19.314 -1.752,18.48 9.197,30.57 21.326,41.661 18.17,16.617 41.63,21.532 64.434,27.56 5.646,1.493 9.071,-1.631 8.044,-7.602 -0.651,-3.779 -1.54,-8.453 -4.094,-10.797 -7.852,-7.212 -8.761,-17.112 -12.381,-26.098 -4.327,-10.74 -10.644,-20.679 -15.802,-30.406 1.211,-9.542 3.421,-19.661 3.531,-29.804 0.12,-10.923 -6.095,-18.569 -16.922,-21.397 -10.505,-2.744 -17.432,3.594 -23.773,10.556 -1.713,1.881 -2.749,4.38 -3.5,5.615 -4.636,-6.496 -8.176,-15.415 -14.731,-19.516 -6.432,-4.024 -16.437,-5.536 -23.974,-3.929 -15.774,3.363 -24.189,19.833 -22.809,41.087 -13.403,-8.299 -22.628,-23.355 -43.553,-20.405 14.799,-19.977 26.503,-38.664 41.096,-54.728 17.117,-18.842 43.289,-22.495 66.062,-10.833 12.308,6.305 23.295,15.191 34.877,22.913 -0.669,1.011 -1.338,2.022 -2.007,3.034 -4.211,-2.958 -8.421,-5.914 -12.854,-9.025 -4.807,5.794 -4.235,10.936 1.15,13.856 19.735,10.701 24.541,27.958 25.589,48.924 0.46,9.211 7.383,18.479 12.63,26.941 3.56,5.742 9.068,10.385 14.137,15.052 6.712,6.18 8.59,13.52 7.302,22.287 -1.475,10.032 -2.686,20.114 -3.642,30.208 -1.327,14.008 -4.922,18.675 -19.4,19.675 -41.98,2.898 -81.774,-5.768 -117.648,-27.695 -22.183,-13.557 -32.218,-36.207 -37.543,-62.24 z m 104.129,-86.158 c -12.03,0 -21.105,0.105 -30.178,-0.023 -14.326,-0.203 -23.734,8.227 -31.876,18.439 -1.445,1.814 -0.702,5.374 -0.971,8.129 0.753,0.563 1.505,1.127 2.258,1.692 12.056,-16.127 29.416,-17.41 46.853,-18.579 2.255,-0.151 4.85,-0.36 6.604,-1.551 2.23,-1.509 3.761,-4.048 7.31,-8.107 z"
   id="path6"
   inkscape:connector-curvature="0"
   style="clip-rule:evenodd;fill:#ffffff;fill-rule:evenodd" />
	<path
   d="m 553.696,767.281 c -6.134,4.986 -11.288,12.082 -18.221,13.752 -17.398,4.19 -35.585,8.378 -53.228,7.572 -32.675,-1.492 -65.35,-5.497 -97.713,-10.479 -23.368,-3.597 -35.52,-21.938 -42.129,-42.577 -9.861,-30.794 -11.126,-62.602 -3.985,-94.283 3.579,-15.883 11.676,-29.324 27.017,-36.812 2.38,-1.161 6.876,-1.53 8.528,-0.104 20.34,17.557 44.867,20.192 69.602,17.425 18.219,-2.039 35.942,-8.508 55.278,-13.352 1.352,3.536 4.458,9.706 6.069,16.246 5.328,21.605 9.843,43.414 15.271,64.993 1.745,6.943 -0.6,9.136 -6.735,11.234 -3.163,1.081 -6.767,4.319 -7.225,8.579 -0.238,2.217 3.278,7.076 5.805,7.613 3.162,0.674 7.009,-1.875 13.594,-4.022 -0.057,15.537 -6.332,19.226 -9.49,27.85 -1.796,4.905 -5.25,9.438 -5.964,14.424 -0.518,3.613 -0.194,9.991 3.535,11.567 4.239,1.369 9.656,-2.152 11.252,-5.025 3.707,-6.672 5.395,-14.465 8.915,-24.772 2.287,9.16 3.72,15.801 5.628,22.302 2.184,7.446 6.473,11.411 14.617,7.371 z m -136.85,-76.757 c -0.065,-19.408 -12.993,-33.037 -31.321,-33.021 -11.868,0.011 -23.939,13.862 -23.856,27.376 0.103,16.704 13.843,27.569 34.899,27.6 13.676,0.02 20.328,-7.181 20.278,-21.955 z m -19.71,38.478 c -18.264,0.358 -21.316,4.166 -20.828,25.977 0.253,11.286 14.971,21.131 30.881,20.656 10.568,-0.315 19.712,-10.861 19.229,-22.176 -0.583,-13.637 -13.898,-24.759 -29.282,-24.457 z"
   id="path8"
   inkscape:connector-curvature="0"
   style="clip-rule:evenodd;fill:#ffffff;fill-rule:evenodd" />
	<path
   d="m 493.979,507.353 c 19.962,10.066 29.941,57.143 19.159,72.011 -2.002,-11.345 -3.773,-20.841 -5.327,-30.372 -1.16,-7.121 -2.494,-14.223 -11.862,-13.851 -7.1,0.282 -11.659,7.892 -9.711,17.464 2.404,11.816 5.888,23.417 9.034,35.075 2.225,8.243 -0.438,13.401 -8.43,16.994 -29.298,13.17 -59.64,16.745 -89.937,6.188 -25.25,-8.796 -29.888,-18.445 -30.756,-48.677 -0.494,-17.185 4.664,-33.921 14.725,-48.182 3.903,-5.532 10.553,-9.128 15.664,-13.369 32.233,25.533 66.367,27.637 97.441,6.719 z m -120.011,55.419 c -0.107,12.968 8.811,26.616 21.286,30.857 3.505,1.19 8.701,0.663 11.935,-1.171 13.925,-7.898 15.704,-40.274 3.158,-50.374 -0.749,-0.603 -1.615,-1.235 -2.521,-1.44 -16.43,-3.72 -35.05,-3.232 -33.858,22.128 z"
   id="path10"
   inkscape:connector-curvature="0"
   style="clip-rule:evenodd;fill:#ffffff;fill-rule:evenodd" />
	<path
   d="m 572.973,746.439 c -26.288,-28.148 -33.878,-63.866 -42.013,-98.72 -4.495,-19.264 -3.743,-39.673 -13.066,-58.078 -1.341,-2.646 1.624,-7.473 2.612,-11.357 60.884,19.201 86.818,114.036 52.467,168.155 z"
   id="path12"
   inkscape:connector-curvature="0"
   style="clip-rule:evenodd;fill:#ffffff;fill-rule:evenodd" />
	<path
   d="m 456.778,797.274 c 28.04,-2.439 54.935,-4.777 82.776,-7.199 6.819,14.699 6.438,42.676 -19.033,46.538 -11.9,1.804 -23.936,4.106 -35.878,3.933 -17.445,-0.254 -26.218,-9.42 -27.781,-26.543 -0.53,-5.803 -0.084,-11.694 -0.084,-16.729 z"
   id="path14"
   inkscape:connector-curvature="0"
   style="clip-rule:evenodd;fill:#ffffff;fill-rule:evenodd" />
	<path
   d="m 449.848,794.668 c 0.521,11.259 1.017,22.004 1.573,34.052 -1.901,0.832 -4.83,3.256 -7.688,3.176 -16.216,-0.456 -33.079,1.037 -48.455,-2.982 -20.826,-5.443 -25.402,-22.894 -14.191,-42.969 22.585,2.865 45.25,5.74 68.761,8.723 z"
   id="path16"
   inkscape:connector-curvature="0"
   style="clip-rule:evenodd;fill:#ffffff;fill-rule:evenodd" />
	<path
   d="m 476.349,382.265 c 23.892,4.992 46.217,9.656 68.856,14.385 1.868,17.499 -4.943,26.139 -22.885,25.485 -11.34,-0.414 -22.849,-2.212 -33.823,-5.12 -14.196,-3.762 -15.377,-6.346 -14.398,-21.029 0.321,-4.818 1.547,-9.576 2.25,-13.721 z"
   id="path18"
   inkscape:connector-curvature="0"
   style="clip-rule:evenodd;fill:#ffffff;fill-rule:evenodd" />
	<path
   d="m 499.574,267.626 c 0.127,15.334 -9.767,28.516 -21.296,28.375 -15.548,-0.192 -26.425,-9.521 -26.49,-22.721 -0.084,-16.984 9.819,-28.489 24.454,-28.404 13.089,0.076 23.227,9.962 23.332,22.75 z m -10.26,-1.049 c 0.014,-7.728 -6.633,-14.251 -14.419,-14.153 -7.736,0.098 -14.416,6.906 -14.181,14.456 0.229,7.311 6.457,13.284 14.027,13.451 8.036,0.177 14.561,-5.981 14.573,-13.754 z"
   id="path20"
   inkscape:connector-curvature="0"
   style="clip-rule:evenodd;fill:#ffffff;fill-rule:evenodd" />
	<path
   d="m 540.811,293.64 c -3.815,-2.124 -7.233,-4.026 -8.521,-4.742 1.134,-7.753 4.195,-14.984 2.557,-20.916 -2.109,-7.639 -9.924,-9.621 -18.199,-7.465 6.347,-7.764 15.88,-9.473 22.969,-4.459 9.022,6.382 9.793,23.116 1.194,37.582 z"
   id="path22"
   inkscape:connector-curvature="0"
   style="clip-rule:evenodd;fill:#ffffff;fill-rule:evenodd" />
	<path
   d="m 554.117,766.784 c 3.292,-5.137 0.337,-17.079 0.731,-21.783 2.817,2.945 7.683,8.835 14.43,11.061 -5.022,3.504 -10.121,7.061 -15.245,10.588 0.56,-0.521 0.084,0.134 0.084,0.134 z"
   id="path24"
   inkscape:connector-curvature="0"
   style="clip-rule:evenodd;fill:#ffffff;fill-rule:evenodd" />
</g>
<g
   id="g32"
   transform="matrix(0.65501442,0,0,0.65501442,63.781181,110.02436)">
	<path
   d="m 551.342,728.012 c -10.009,-28.257 -19.199,-56.834 -27.682,-85.592 -3.952,-13.396 -5.081,-27.599 -8.427,-41.205 -3.969,-16.134 -8.945,-32.019 -13.486,-48.011 -1.168,-4.111 -2.338,-8.223 -3.508,-12.333 -1.182,0.019 -2.363,0.035 -3.546,0.054 -0.841,3.405 -2.982,7.095 -2.311,10.17 4.106,18.803 8.615,37.529 13.47,56.155 3.133,12.017 7.398,23.736 10.581,35.741 3.188,12.017 5.024,24.415 8.632,36.289 1.603,5.277 1.234,10.774 1.087,16.226 -3.819,2.641 -16.9,11.793 -16.336,12.921 0.66,1.319 1.1,5.059 3.959,5.059 1.172,0 9.702,-2.125 14.018,-3.831 0.47,1.243 1.057,2.47 1.806,3.677 0.439,0.707 0.155,1.951 0.015,2.917 -0.41,2.821 -0.829,5.635 -1.247,8.422 l -6.893,15.648 c 0,0 -12.758,18.255 -6.159,21.774 6.599,3.519 11.059,-16.022 12.158,-16.683 0.727,-0.437 4.384,-9.432 7.27,-14.563 2.582,0.153 4.435,3.125 6.213,9.219 1.739,5.958 3.348,18.291 5.152,24.228 0.505,1.663 4.233,1.56 5.059,-1.1 1.6,-5.83 -0.003,-16.36 -1.979,-23.534 -0.574,-2.085 -2.069,-4.429 -1.54,-6.818 1.979,2.419 3.151,2.865 4.839,4.618 3.708,3.852 8.188,7.363 11.438,11.657 2.1,1.852 5.495,0.515 3.959,-3.299 -4.751,-6.017 -14.118,-10.965 -16.542,-17.806 z"
   id="path28"
   inkscape:connector-curvature="0"
   style="clip-rule:evenodd;fill:#726658;fill-rule:evenodd" />
	<path
   d="m 386.503,496.162 c -18.414,-44.075 -57.835,-93.298 -71.82,-116.048 1.313,-5.587 4.711,-18.959 0.209,-21.873 -3.941,-2.55 -11.15,2.098 -15.053,5.054 -4.215,-8.411 -10.225,-43.689 -17.788,-43.149 -3.241,0.231 1.841,21.513 5.122,34.053 -1.637,-0.645 -3.367,-1.094 -5.213,-1.3 -7.031,-7.455 -22.474,-21.656 -25.525,-16.989 -4.144,6.338 11.064,19.001 19.182,25.111 -7.257,-2.738 -17.62,-6.312 -20.496,-3.437 -3.612,3.613 -0.657,8.539 -0.657,8.539 3.941,0.329 44.335,11.823 44.335,11.823 0,0 9.123,5.663 13.256,9.492 16.628,19.408 38.632,58.489 45.104,68.374 7.062,10.785 15.079,18.476 18.567,30.23 1.729,5.828 3.763,11.564 5.658,17.343 0.897,0.186 1.795,0.372 2.691,0.558 5.037,-3.172 3.148,-6.058 2.428,-7.781 z"
   id="path30"
   inkscape:connector-curvature="0"
   style="clip-rule:evenodd;fill:#726658;fill-rule:evenodd" />
</g>
</svg>