<?xml version="1.0" encoding="utf-8"?>
<!-- Generator: Adobe Illustrator 16.0.0, SVG Export Plug-In . SVG Version: 6.00 Build 0)  -->
<!DOCTYPE svg PUBLIC "-//W3C//DTD SVG 1.1//EN" "http://www.w3.org/Graphics/SVG/1.1/DTD/svg11.dtd">
<svg version="1.1" id="Layer_2" xmlns="http://www.w3.org/2000/svg" xmlns:xlink="http://www.w3.org/1999/xlink" x="0px" y="0px"
	 width="864px" height="864px" viewBox="0 0 864 864" enable-background="new 0 0 864 864" xml:space="preserve">
<path fill-rule="evenodd" clip-rule="evenodd" d="M574.402,394.938c12.807-4.108,19.449-12.593,20.282-25.946
	c0.492-7.869,0.133-16.048,2.222-23.508c4.518-16.129,0.817-29.04-11.917-39.658c-15.353-12.803-23.361-29.045-22.143-49.226
	c1.885-31.24-14.695-51.047-39.993-65.657c-3.011-1.739-5.844-3.781-8.467-5.493c1.927-4.344,4.073-7.781,5.009-11.522
	c6.134-24.509,19.692-44.893,35.568-63.872c10.027-11.989,21.776-12.53,34.81-2.861c1.306,0.969,3.509,0.728,5.296,1.048
	c0.257-1.772,1.386-4.366,0.623-5.175c-3.629-3.843-7.413-9.548-11.812-10.222c-8.17-1.252-16.806,0.532-26.516,1.13
	c-0.147-0.116-2.174-1.702-4.199-3.289c-1.895,2.86-4.101,5.565-5.615,8.613c-3.085,6.202-5.36,12.835-8.765,18.839
	c-4.83,8.518-10.994,16.312-15.463,24.995c-5.231,10.167-9.255,20.958-14.486,33.063c1.859-10.259,3.583-18.839,4.95-27.475
	c4.757-30.055-0.721-59.474-4.896-89.11c-2.33-16.548-6.997-31.262-18.969-43.06c-2.419-2.383-5.973-3.615-9.003-5.378
	c-1.176,1.162-2.353,2.326-3.529,3.488c14.374,7.365,13.724,22.707,20.194,34.384c6.578,11.871,6.094,27.905,7.667,42.23
	c1.578,14.386,1.88,28.914,2.741,43.379c-1.185,0.135-2.37,0.269-3.556,0.404c-1.088-3.604-2.317-7.173-3.234-10.821
	c-2.048-8.154-3.585-16.458-6.105-24.458c-0.782-2.485-4.057-4.187-6.189-6.248c-0.365,3.081-1.478,6.299-0.938,9.21
	c1.076,5.803,3.06,11.439,5.115,18.729c-14.872-7.264-35.179-10.016-44.523,7.86c-0.826,1.58-0.32,3.856-0.433,5.81
	c1.995-0.278,4.244-0.081,5.913-0.97c1.624-0.864,2.806-2.738,3.922-4.349c6.608-9.533,17.145-6.571,24.186-4.07
	c5.927,2.106,12.273,10.976,13.159,17.562c1.529,11.383-1.03,23.315-1.866,34.903c-1.779,0.418-2.722,0.879-3.631,0.819
	c-28.597-1.869-48.622,11.927-64.59,34.263c-15.078,21.091-31.07,41.527-46.426,62.423c-3.467,4.717-6.412,9.943-8.83,15.282
	c-11.875,26.213-11.293,53.716-7.069,81.264c4.556,29.718,10.05,59.292,15.074,88.573c-0.389-0.357-1.52-1.069-2.206-2.082
	c-16.785-24.7-33.485-49.456-50.294-74.14c-3.61-5.3-5.695-10.263-4.106-17.284c1.016-4.489-0.328-11.651-3.572-14.313
	c-4.955-4.066-9.275-0.826-15.48,1.741c-0.758-1.701-2.734-5.003-3.722-8.579c-2.439-8.836-3.738-18.062-6.984-26.562
	c-1.073-2.809-6.786-5.528-10.228-5.352c-5.094,0.261-7.69,4.378-6.02,10.094c1.772,6.063,3.268,12.208,5.468,20.526
	c-7.252-5.225-12.499-9.079-17.823-12.821c-6.329-4.449-12.297-2.058-11.754,5.505c0.365,5.071,3.931,9.913,6.002,14.715
	c-7.482-0.958-8.511,5.398-8.692,10.83c-0.223,6.661,6.067,7.28,11.483,8.193c8.531,1.437,17.068,3.772,25.111,6.968
	c15.242,6.055,24.212,19.666,35.352,30.724c9.919,9.847,15.771,21.412,19.508,34.679c1.523,5.409,4.459,11.604,8.725,14.846
	c15.178,11.53,19.384,28.226,23.297,45.181c0.729,3.161,0.426,7.269-1.024,10.111c-13.392,26.236-18.113,53.166-6.962,82.054
	c-20.502,10.72-30.934,28.353-35.083,49.967c-5.283,27.518-3.534,55.005,2.551,82.144c5.403,24.101,19.107,42.784,40.234,55.596
	c-0.893,2.946-1.563,5.116-2.207,7.293c-6.568,22.21,1.067,38.928,22.933,45.999c18.922,6.121,38.513,7.841,58.085,1.471
	c2.407-0.784,6.324-1.196,7.816,0.143c14.744,13.233,32.479,11.906,49.636,9.32c36.845-5.552,46.149-18.677,41.268-55.736
	c-0.733-5.568,0.825-8.891,5.044-12.472c6.969-5.917,14.08-12.065,19.511-19.328c43.495-58.156,22.759-152.01-40.817-186.921
	c-2.597-1.427-5.68-4.796-5.828-7.414c-1.436-25.332-7.271-48.649-27.574-65.285c22.375-33.741,44.245-66.878,66.395-99.826
	C567.807,398.153,571.262,395.945,574.402,394.938z"/>
<path fill-rule="evenodd" clip-rule="evenodd" fill="#F7941E" d="M575.913,366.751c-26.982-7.087-52.475-12.46-70.976-32.842
	c-1.545-1.703-3.435-3.223-4.53-5.184c-4.511-8.066-12.373-15.79-5.819-25.97c5.817-9.037,23.532-13.396,33.886-9.296
	c15.874,6.285,25.356,18.246,30.057,34.212c2.828,9.603,4.305,19.516,12.545,26.829
	C573.729,356.854,574.074,361.809,575.913,366.751z"/>
<g>
	<path fill-rule="evenodd" clip-rule="evenodd" fill="#FFFFFF" d="M412.122,297.161c4.485,0,7.45,0,10.967,0
		c-7.882-12.18-23.503-9.102-33.576,7.935c4.124-2.08,6.074-2.938,7.895-4.016c1.9-1.124,3.677-2.458,4.195-2.811
		c8.728,16.341,16.075,33.048,26.064,47.987c10.363,15.497,25.933,25.763,43.344,32.118c-1.046,7.319-2.366,13.73-2.799,20.2
		c-0.856,12.788,2.221,17.636,14.443,22.427c18.499,7.249,37.42,9.211,58.796,2.573c-2.603,4.075-4.298,6.882-6.14,9.588
		c-15.696,23.071-31.41,46.131-47.152,69.17c-0.888,1.299-1.904,2.622-3.149,3.548c-22.477,16.717-67.696,12.073-82.934-10.807
		c-8.258-12.4-12.384-28.081-16.133-42.851c-9.621-37.901-16.787-76.349-17.115-115.623c-0.197-23.591,6.106-45.394,22.274-63.477
		c8.32-9.306,18.355-11.763,29.096-5.609c7.316,4.193,13.982,9.759,20.283,15.44c13.132,11.842,27.73,19.702,46.096,19.314
		c-1.752,18.48,9.197,30.57,21.326,41.661c18.17,16.617,41.63,21.532,64.434,27.56c5.646,1.493,9.071-1.631,8.044-7.602
		c-0.651-3.779-1.54-8.453-4.094-10.797c-7.852-7.212-8.761-17.112-12.381-26.098c-4.327-10.74-10.644-20.679-15.802-30.406
		c1.211-9.542,3.421-19.661,3.531-29.804c0.12-10.923-6.095-18.569-16.922-21.397c-10.505-2.744-17.432,3.594-23.773,10.556
		c-1.713,1.881-2.749,4.38-3.5,5.615c-4.636-6.496-8.176-15.415-14.731-19.516c-6.432-4.024-16.437-5.536-23.974-3.929
		c-15.774,3.363-24.189,19.833-22.809,41.087c-13.403-8.299-22.628-23.355-43.553-20.405c14.799-19.977,26.503-38.664,41.096-54.728
		c17.117-18.842,43.289-22.495,66.062-10.833c12.308,6.305,23.295,15.191,34.877,22.913c-0.669,1.011-1.338,2.022-2.007,3.034
		c-4.211-2.958-8.421-5.914-12.854-9.025c-4.807,5.794-4.235,10.936,1.15,13.856c19.735,10.701,24.541,27.958,25.589,48.924
		c0.46,9.211,7.383,18.479,12.63,26.941c3.56,5.742,9.068,10.385,14.137,15.052c6.712,6.18,8.59,13.52,7.302,22.287
		c-1.475,10.032-2.686,20.114-3.642,30.208c-1.327,14.008-4.922,18.675-19.4,19.675c-41.98,2.898-81.774-5.768-117.648-27.695
		C427.482,345.844,417.447,323.194,412.122,297.161z M516.251,211.003c-12.03,0-21.105,0.105-30.178-0.023
		c-14.326-0.203-23.734,8.227-31.876,18.439c-1.445,1.814-0.702,5.374-0.971,8.129c0.753,0.563,1.505,1.127,2.258,1.692
		c12.056-16.127,29.416-17.41,46.853-18.579c2.255-0.151,4.85-0.36,6.604-1.551C511.171,217.601,512.702,215.062,516.251,211.003z"
		/>
	<path fill-rule="evenodd" clip-rule="evenodd" fill="#FFFFFF" d="M553.696,767.281c-6.134,4.986-11.288,12.082-18.221,13.752
		c-17.398,4.19-35.585,8.378-53.228,7.572c-32.675-1.492-65.35-5.497-97.713-10.479c-23.368-3.597-35.52-21.938-42.129-42.577
		c-9.861-30.794-11.126-62.602-3.985-94.283c3.579-15.883,11.676-29.324,27.017-36.812c2.38-1.161,6.876-1.53,8.528-0.104
		c20.34,17.557,44.867,20.192,69.602,17.425c18.219-2.039,35.942-8.508,55.278-13.352c1.352,3.536,4.458,9.706,6.069,16.246
		c5.328,21.605,9.843,43.414,15.271,64.993c1.745,6.943-0.6,9.136-6.735,11.234c-3.163,1.081-6.767,4.319-7.225,8.579
		c-0.238,2.217,3.278,7.076,5.805,7.613c3.162,0.674,7.009-1.875,13.594-4.022c-0.057,15.537-6.332,19.226-9.49,27.85
		c-1.796,4.905-5.25,9.438-5.964,14.424c-0.518,3.613-0.194,9.991,3.535,11.567c4.239,1.369,9.656-2.152,11.252-5.025
		c3.707-6.672,5.395-14.465,8.915-24.772c2.287,9.16,3.72,15.801,5.628,22.302c2.184,7.446,6.473,11.411,14.617,7.371
		L553.696,767.281z M416.846,690.524c-0.065-19.408-12.993-33.037-31.321-33.021c-11.868,0.011-23.939,13.862-23.856,27.376
		c0.103,16.704,13.843,27.569,34.899,27.6C410.244,712.499,416.896,705.298,416.846,690.524z M397.136,729.002
		c-18.264,0.358-21.316,4.166-20.828,25.977c0.253,11.286,14.971,21.131,30.881,20.656c10.568-0.315,19.712-10.861,19.229-22.176
		C425.835,739.822,412.52,728.7,397.136,729.002z"/>
	<path fill-rule="evenodd" clip-rule="evenodd" fill="#FFFFFF" d="M493.979,507.353c19.962,10.066,29.941,57.143,19.159,72.011
		c-2.002-11.345-3.773-20.841-5.327-30.372c-1.16-7.121-2.494-14.223-11.862-13.851c-7.1,0.282-11.659,7.892-9.711,17.464
		c2.404,11.816,5.888,23.417,9.034,35.075c2.225,8.243-0.438,13.401-8.43,16.994c-29.298,13.17-59.64,16.745-89.937,6.188
		c-25.25-8.796-29.888-18.445-30.756-48.677c-0.494-17.185,4.664-33.921,14.725-48.182c3.903-5.532,10.553-9.128,15.664-13.369
		C428.771,526.167,462.905,528.271,493.979,507.353z M373.968,562.772c-0.107,12.968,8.811,26.616,21.286,30.857
		c3.505,1.19,8.701,0.663,11.935-1.171c13.925-7.898,15.704-40.274,3.158-50.374c-0.749-0.603-1.615-1.235-2.521-1.44
		C391.396,536.924,372.776,537.412,373.968,562.772z"/>
	<path fill-rule="evenodd" clip-rule="evenodd" fill="#FFFFFF" d="M572.973,746.439c-26.288-28.148-33.878-63.866-42.013-98.72
		c-4.495-19.264-3.743-39.673-13.066-58.078c-1.341-2.646,1.624-7.473,2.612-11.357C581.39,597.485,607.324,692.32,572.973,746.439z
		"/>
	<path fill-rule="evenodd" clip-rule="evenodd" fill="#FFFFFF" d="M456.778,797.274c28.04-2.439,54.935-4.777,82.776-7.199
		c6.819,14.699,6.438,42.676-19.033,46.538c-11.9,1.804-23.936,4.106-35.878,3.933c-17.445-0.254-26.218-9.42-27.781-26.543
		C456.332,808.2,456.778,802.309,456.778,797.274z"/>
	<path fill-rule="evenodd" clip-rule="evenodd" fill="#FFFFFF" d="M449.848,794.668c0.521,11.259,1.017,22.004,1.573,34.052
		c-1.901,0.832-4.83,3.256-7.688,3.176c-16.216-0.456-33.079,1.037-48.455-2.982c-20.826-5.443-25.402-22.894-14.191-42.969
		C403.672,788.81,426.337,791.685,449.848,794.668z"/>
	<path fill-rule="evenodd" clip-rule="evenodd" fill="#FFFFFF" d="M476.349,382.265c23.892,4.992,46.217,9.656,68.856,14.385
		c1.868,17.499-4.943,26.139-22.885,25.485c-11.34-0.414-22.849-2.212-33.823-5.12c-14.196-3.762-15.377-6.346-14.398-21.029
		C474.42,391.168,475.646,386.41,476.349,382.265z"/>
	<path fill-rule="evenodd" clip-rule="evenodd" fill="#FFFFFF" d="M499.574,267.626c0.127,15.334-9.767,28.516-21.296,28.375
		c-15.548-0.192-26.425-9.521-26.49-22.721c-0.084-16.984,9.819-28.489,24.454-28.404
		C489.331,244.952,499.469,254.838,499.574,267.626z M489.314,266.577c0.014-7.728-6.633-14.251-14.419-14.153
		c-7.736,0.098-14.416,6.906-14.181,14.456c0.229,7.311,6.457,13.284,14.027,13.451C482.777,280.508,489.302,274.35,489.314,266.577
		z"/>
	<path fill-rule="evenodd" clip-rule="evenodd" fill="#FFFFFF" d="M540.811,293.64c-3.815-2.124-7.233-4.026-8.521-4.742
		c1.134-7.753,4.195-14.984,2.557-20.916c-2.109-7.639-9.924-9.621-18.199-7.465c6.347-7.764,15.88-9.473,22.969-4.459
		C548.639,262.44,549.41,279.174,540.811,293.64z"/>
	<path fill-rule="evenodd" clip-rule="evenodd" fill="#FFFFFF" d="M554.117,766.784c3.292-5.137,0.337-17.079,0.731-21.783
		c2.817,2.945,7.683,8.835,14.43,11.061c-5.022,3.504-10.121,7.061-15.245,10.588C554.593,766.129,554.117,766.784,554.117,766.784z
		"/>
</g>
<g>
	<path fill-rule="evenodd" clip-rule="evenodd" fill="#726658" d="M551.342,728.012c-10.009-28.257-19.199-56.834-27.682-85.592
		c-3.952-13.396-5.081-27.599-8.427-41.205c-3.969-16.134-8.945-32.019-13.486-48.011c-1.168-4.111-2.338-8.223-3.508-12.333
		c-1.182,0.019-2.363,0.035-3.546,0.054c-0.841,3.405-2.982,7.095-2.311,10.17c4.106,18.803,8.615,37.529,13.47,56.155
		c3.133,12.017,7.398,23.736,10.581,35.741c3.188,12.017,5.024,24.415,8.632,36.289c1.603,5.277,1.234,10.774,1.087,16.226
		c-3.819,2.641-16.9,11.793-16.336,12.921c0.66,1.319,1.1,5.059,3.959,5.059c1.172,0,9.702-2.125,14.018-3.831
		c0.47,1.243,1.057,2.47,1.806,3.677c0.439,0.707,0.155,1.951,0.015,2.917c-0.41,2.821-0.829,5.635-1.247,8.422l-6.893,15.648
		c0,0-12.758,18.255-6.159,21.774s11.059-16.022,12.158-16.683c0.727-0.437,4.384-9.432,7.27-14.563
		c2.582,0.153,4.435,3.125,6.213,9.219c1.739,5.958,3.348,18.291,5.152,24.228c0.505,1.663,4.233,1.56,5.059-1.1
		c1.6-5.83-0.003-16.36-1.979-23.534c-0.574-2.085-2.069-4.429-1.54-6.818c1.979,2.419,3.151,2.865,4.839,4.618
		c3.708,3.852,8.188,7.363,11.438,11.657c2.1,1.852,5.495,0.515,3.959-3.299C563.133,739.801,553.766,734.853,551.342,728.012z"/>
	<path fill-rule="evenodd" clip-rule="evenodd" fill="#726658" d="M386.503,496.162c-18.414-44.075-57.835-93.298-71.82-116.048
		c1.313-5.587,4.711-18.959,0.209-21.873c-3.941-2.55-11.15,2.098-15.053,5.054c-4.215-8.411-10.225-43.689-17.788-43.149
		c-3.241,0.231,1.841,21.513,5.122,34.053c-1.637-0.645-3.367-1.094-5.213-1.3c-7.031-7.455-22.474-21.656-25.525-16.989
		c-4.144,6.338,11.064,19.001,19.182,25.111c-7.257-2.738-17.62-6.312-20.496-3.437c-3.612,3.613-0.657,8.539-0.657,8.539
		c3.941,0.329,44.335,11.823,44.335,11.823s9.123,5.663,13.256,9.492c16.628,19.408,38.632,58.489,45.104,68.374
		c7.062,10.785,15.079,18.476,18.567,30.23c1.729,5.828,3.763,11.564,5.658,17.343c0.897,0.186,1.795,0.372,2.691,0.558
		C389.112,500.771,387.223,497.885,386.503,496.162z"/>
</g>
</svg>
